# xmcd
#
# Track frame offsets:
#	150
#	21311
#	38334
#	55662
#	71111
#	89044
#	107934
#	134576
#	165719
#	182939
#	196187
#	210990
#	226845
#	243490
#	280726
#	300141
#
# Disc length: 4607
#
# Revision: 2
# Processed by: cddbd v1.5.1PL0 Copyright (c) Steve Scherf et al.
# Submitted via: CDex 1.50
# Normalized: r1:TDELIM( - )
#
DISCID=d911fd10
DTITLE=Various Artist - mysticbeats
DYEAR=2002
DGENRE=New Age
TTITLE0=E Nomine - Wolfen (Das Tier in mir)
TTITLE1=Teutonica - Die Sünde (Metasonica Radio Edit)
TTITLE2=Habemus Papam - In Nomine Patri
TTITLE3=Mauro Picotto - Komodo
TTITLE4=In Credo - Suela
TTITLE5=Fantastica - Sanctus
TTITLE6=Trance Dance - Tales of Mytery
TTITLE7=Metasonice feat. Shequida - Requiem
TTITLE8=Magne Canta - Hymn
TTITLE9=Lingua Mystica - Gloria
TTITLE10=Dario F. - Ave Maria... Oh Mary
TTITLE11=Odi Et Amo - Ad Dianam
TTITLE12=Schoonderwalt and Ebbenhorst - Silence of the Mayas
TTITLE13=Rolf Trostel - Kyrie
TTITLE14=Alexander Gero - Russia
TTITLE15=Henri Seroka and Ralph Benatar - Beyond Infinity
EXTD=YEAR: 2002
EXTT0=
EXTT1=
EXTT2=
EXTT3=
EXTT4=
EXTT5=
EXTT6=
EXTT7=
EXTT8=
EXTT9=
EXTT10=
EXTT11=
EXTT12=
EXTT13=
EXTT14=
EXTT15=
PLAYORDER=
